
<svg xmlns="http://www.w3.org/2000/svg" width="200" height="200" viewBox="0 0 69 46"><path fill="#bc8e5b" d="m68.663 13.85-1.818.317a58.898 58.898 0 0 0-10.29 2.788V6.973l-.97.438c-2.2.992-4.286 2.03-6.275 3.123L49.243.076 48.19.752c-5.124 3.287-9.822 7.022-14.017 11.133C30.133 8.048 25.58 4.321 20.578.77L19.494 0v10.84a74.367 74.367 0 0 0-6.654-3.333l-.968-.425.046 9.282c-3.319-1.145-6.66-1.893-9.971-2.231l-1.63-.166L13.36 30.343l-.058-11.988a52.785 52.785 0 0 1 6.193 2.916v10.377l.136.184c3.834 5.186 13.923 13.622 14.35 13.978l.437.365.439-.362c.427-.353 10.523-8.702 14.361-14.09l.226-.388-.062-9.661a64.353 64.353 0 0 1 5.799-2.706v11.425l13.482-16.542Zm-12.109 4.58a58.31 58.31 0 0 1 8.676-2.547l-8.676 10.644v-8.098ZM3.466 15.711a43.699 43.699 0 0 1 8.457 2.127l.041 8.543-8.498-10.67Zm44.409-13.11.013 8.732a69.464 69.464 0 0 0-8.57 5.806 90.093 90.093 0 0 0-1.791-1.92c-.768-.8-1.561-1.596-2.373-2.389 3.828-3.75 8.057-7.148 12.72-10.23ZM24.77 22.886a59.986 59.986 0 0 0-3.903-2.432v-7.21a75.92 75.92 0 0 1 7.382 5.106 83.81 83.81 0 0 0-3.479 4.536Zm4.545-3.687a78.191 78.191 0 0 1 3.922 3.404 75.305 75.305 0 0 0-3.604 3.924c-1.088-.9-2.34-1.87-3.737-2.862a82.121 82.121 0 0 1 3.42-4.466Zm8.942-1.2a67.306 67.306 0 0 0-4.041 3.633 79.414 79.414 0 0 0-4.015-3.49 80.899 80.899 0 0 1 3.988-4.35A94.113 94.113 0 0 1 38.257 18Zm-.208 9.482a50.954 50.954 0 0 0-3.77 3.334 51.448 51.448 0 0 0-3.593-3.398 74.293 74.293 0 0 1 3.553-3.866 78.44 78.44 0 0 1 3.81 3.93Zm-8.255.994c2.522 2.184 3.933 3.772 3.955 3.796l.5.567.516-.553c.02-.023 1.496-1.59 4.203-3.77a79.851 79.851 0 0 1 2.518 3.032l-7.023 6.67-7.132-6.623a86.603 86.603 0 0 1 2.463-3.12Zm5.424-5.894a66.399 66.399 0 0 1 3.959-3.551 77.34 77.34 0 0 1 3.885 4.787c-.128.084-.254.169-.378.252a67.32 67.32 0 0 0-3.55 2.556 80.283 80.283 0 0 0-3.916-4.044Zm5.021-4.41a67.888 67.888 0 0 1 7.653-5.24l.013 7.97a67.626 67.626 0 0 0-3.69 2.17 78.719 78.719 0 0 0-3.976-4.9ZM20.867 2.675c4.548 3.294 8.674 6.701 12.339 10.174a82.945 82.945 0 0 0-2.104 2.21 82.718 82.718 0 0 0-1.968 2.232 77.217 77.217 0 0 0-8.267-5.656v-8.96Zm-5.59 14.988c-.66-.282-1.322-.55-1.985-.801l-.037-7.656a73.151 73.151 0 0 1 6.237 3.223v7.266a54.026 54.026 0 0 0-4.216-2.032Zm8.702 6.352a87.804 87.804 0 0 0-3.11 4.84v-6.803a59.98 59.98 0 0 1 3.11 1.963Zm10.442 20.364c-1.956-1.66-9.957-8.54-13.418-13.014a87.02 87.02 0 0 1 4.102-6.57 62.04 62.04 0 0 1 3.638 2.79 90.222 90.222 0 0 0-2.885 3.68l-.371.499 8.986 8.345 8.867-8.421-.384-.495a80.931 80.931 0 0 0-2.904-3.53 64.564 64.564 0 0 1 3.825-2.73 59.17 59.17 0 0 1 3.969 6.332C44.4 35.885 36.382 42.73 34.42 44.379Zm13.495-15.783a62.576 62.576 0 0 0-2.886-4.407 65.756 65.756 0 0 1 2.877-1.713l.01 6.12Zm1.454-8.473-.052-8.015a84.97 84.97 0 0 1 5.86-2.993v8.367a64.99 64.99 0 0 0-5.808 2.64Z"/></svg>